<?xml version="1.0" encoding="UTF-8"?>
<svg xmlns="http://www.w3.org/2000/svg" xmlns:xlink="http://www.w3.org/1999/xlink" width="32px" height="32px" viewBox="0 0 32 32" version="1.1">
<g id="surface1">
<rect x="0" y="0" width="32" height="32" style="fill:rgb(24.313725%,74.901961%,100%);fill-opacity:1;stroke:none;"/>
<path style=" stroke:none;fill-rule:nonzero;fill:rgb(90.980392%,100%,0%);fill-opacity:1;" d="M 19.710938 16 C 19.710938 18.050781 18.050781 19.710938 16 19.710938 C 13.949219 19.710938 12.289062 18.050781 12.289062 16 C 12.289062 13.949219 13.949219 12.289062 16 12.289062 C 18.050781 12.289062 19.710938 13.949219 19.710938 16 Z M 19.710938 16 "/>
<path style=" stroke:none;fill-rule:nonzero;fill:rgb(90.980392%,100%,0%);fill-opacity:1;" d="M 16 20.316406 C 13.621094 20.316406 11.683594 18.378906 11.683594 16 C 11.683594 13.621094 13.621094 11.683594 16 11.683594 C 18.378906 11.683594 20.316406 13.621094 20.316406 16 C 20.316406 18.378906 18.378906 20.316406 16 20.316406 Z M 16 12.898438 C 14.289062 12.898438 12.898438 14.289062 12.898438 16 C 12.898438 17.710938 14.289062 19.105469 16 19.105469 C 17.710938 19.105469 19.105469 17.710938 19.105469 16 C 19.105469 14.289062 17.710938 12.898438 16 12.898438 Z M 16 12.898438 "/>
<path style=" stroke:none;fill-rule:nonzero;fill:rgb(90.980392%,100%,0%);fill-opacity:1;" d="M 16 10.789062 C 15.664062 10.789062 15.394531 10.515625 15.394531 10.183594 L 15.394531 8.210938 C 15.394531 7.875 15.664062 7.601562 16 7.601562 C 16.335938 7.601562 16.605469 7.875 16.605469 8.210938 L 16.605469 10.183594 C 16.605469 10.515625 16.335938 10.789062 16 10.789062 Z M 16 10.789062 "/>
<path style=" stroke:none;fill-rule:nonzero;fill:rgb(90.980392%,100%,0%);fill-opacity:1;" d="M 16 24.398438 C 15.664062 24.398438 15.394531 24.125 15.394531 23.789062 L 15.394531 21.816406 C 15.394531 21.484375 15.664062 21.210938 16 21.210938 C 16.335938 21.210938 16.605469 21.484375 16.605469 21.816406 L 16.605469 23.789062 C 16.605469 24.125 16.335938 24.398438 16 24.398438 Z M 16 24.398438 "/>
<path style=" stroke:none;fill-rule:nonzero;fill:rgb(90.980392%,100%,0%);fill-opacity:1;" d="M 23.789062 16.605469 L 21.816406 16.605469 C 21.484375 16.605469 21.210938 16.335938 21.210938 16 C 21.210938 15.664062 21.484375 15.394531 21.816406 15.394531 L 23.789062 15.394531 C 24.125 15.394531 24.398438 15.664062 24.398438 16 C 24.398438 16.335938 24.125 16.605469 23.789062 16.605469 Z M 23.789062 16.605469 "/>
<path style=" stroke:none;fill-rule:nonzero;fill:rgb(90.980392%,100%,0%);fill-opacity:1;" d="M 10.183594 16.605469 L 8.210938 16.605469 C 7.875 16.605469 7.601562 16.335938 7.601562 16 C 7.601562 15.664062 7.875 15.394531 8.210938 15.394531 L 10.183594 15.394531 C 10.515625 15.394531 10.789062 15.664062 10.789062 16 C 10.789062 16.335938 10.515625 16.605469 10.183594 16.605469 Z M 10.183594 16.605469 "/>
<path style=" stroke:none;fill-rule:nonzero;fill:rgb(90.980392%,100%,0%);fill-opacity:1;" d="M 20.113281 12.492188 C 19.957031 12.492188 19.804688 12.433594 19.683594 12.316406 C 19.449219 12.078125 19.449219 11.695312 19.683594 11.457031 L 21.078125 10.0625 C 21.316406 9.824219 21.699219 9.824219 21.9375 10.0625 C 22.175781 10.300781 22.175781 10.683594 21.9375 10.921875 L 20.542969 12.316406 C 20.425781 12.433594 20.269531 12.492188 20.113281 12.492188 Z M 20.113281 12.492188 "/>
<path style=" stroke:none;fill-rule:nonzero;fill:rgb(90.980392%,100%,0%);fill-opacity:1;" d="M 10.492188 22.113281 C 10.335938 22.113281 10.179688 22.054688 10.0625 21.9375 C 9.824219 21.699219 9.824219 21.316406 10.0625 21.078125 L 11.457031 19.683594 C 11.695312 19.449219 12.078125 19.449219 12.316406 19.683594 C 12.550781 19.921875 12.550781 20.304688 12.316406 20.542969 L 10.921875 21.9375 C 10.800781 22.054688 10.648438 22.113281 10.492188 22.113281 Z M 10.492188 22.113281 "/>
<path style=" stroke:none;fill-rule:nonzero;fill:rgb(90.980392%,100%,0%);fill-opacity:1;" d="M 21.507812 22.113281 C 21.351562 22.113281 21.199219 22.054688 21.078125 21.9375 L 19.683594 20.542969 C 19.449219 20.304688 19.449219 19.921875 19.683594 19.683594 C 19.921875 19.449219 20.304688 19.449219 20.542969 19.683594 L 21.9375 21.078125 C 22.175781 21.316406 22.175781 21.699219 21.9375 21.9375 C 21.820312 22.054688 21.664062 22.113281 21.507812 22.113281 Z M 21.507812 22.113281 "/>
<path style=" stroke:none;fill-rule:nonzero;fill:rgb(90.980392%,100%,0%);fill-opacity:1;" d="M 11.886719 12.492188 C 11.730469 12.492188 11.574219 12.433594 11.457031 12.316406 L 10.0625 10.921875 C 9.824219 10.683594 9.824219 10.300781 10.0625 10.0625 C 10.300781 9.824219 10.683594 9.824219 10.921875 10.0625 L 12.316406 11.457031 C 12.550781 11.695312 12.550781 12.078125 12.316406 12.316406 C 12.195312 12.433594 12.042969 12.492188 11.886719 12.492188 Z M 11.886719 12.492188 "/>
</g>
</svg>
